<svg width="180" height="21" viewBox="0 0 180 21" fill="none" xmlns="http://www.w3.org/2000/svg">
<g id="Frame" clip-path="url(#clip0_3739_17606)">
<g id="Group">
<g id="Group_2">
<path id="Vector" d="M0 18.3189V2.68103H7.75556C8.8454 2.68103 9.73247 2.85845 10.4675 3.23862C11.1771 3.59345 11.7094 4.10035 12.0896 4.73397C12.4444 5.3676 12.6471 6.07726 12.6471 6.8883C12.6471 7.54727 12.5204 8.18089 12.267 8.76382C12.0135 9.3721 11.5573 9.85366 10.873 10.2085V10.2592C11.5827 10.4873 12.1402 10.8928 12.5965 11.4757C13.0527 12.0587 13.2554 12.7683 13.2554 13.5794C13.2554 14.5171 13.0527 15.3535 12.6471 16.0632C12.2416 16.7728 11.6587 17.3304 10.873 17.7359C10.0873 18.1415 9.14954 18.3189 8.00901 18.3189H0ZM3.47226 9.01727H7.50211C8.08505 9.01727 8.5666 8.8652 8.87074 8.58641C9.20023 8.30761 9.3523 7.85141 9.3523 7.26847C9.3523 6.71088 9.17488 6.28002 8.8454 5.97588C8.51591 5.69708 7.98367 5.54501 7.27401 5.54501H3.47226V9.01727ZM3.47226 15.3789H7.50211C8.23712 15.3789 8.76936 15.2268 9.14954 14.9227C9.52971 14.6185 9.70712 14.137 9.70712 13.4526C9.70712 12.8444 9.52971 12.3882 9.17488 12.084C8.82005 11.7799 8.3385 11.6278 7.67953 11.6278H3.47226V15.3789Z" fill="#0051C6"/>
<path id="Vector_2" d="M22.4302 18.547C20.9856 18.547 19.7437 18.2935 18.6792 17.7866C17.6147 17.2797 16.8036 16.5447 16.2461 15.5563C15.6885 14.5932 15.4097 13.402 15.4097 12.008V2.68103H18.8566V11.5011C18.8566 12.8951 19.1861 13.8835 19.8197 14.4411C20.4787 14.9987 21.3657 15.2775 22.5316 15.2775C23.6975 15.2775 24.6099 14.9987 25.2182 14.4411C25.8265 13.8835 26.1559 12.8951 26.1559 11.5011V2.68103H29.5015V12.008C29.5015 13.402 29.1973 14.5678 28.6144 15.5563C28.0315 16.5194 27.1951 17.2797 26.1559 17.7866C25.0914 18.2935 23.8495 18.547 22.4302 18.547Z" fill="#0051C6"/>
<path id="Vector_3" d="M32.4668 18.3189V2.68103H39.7915C40.932 2.68103 41.9205 2.88379 42.7569 3.26396C43.5932 3.66948 44.2269 4.22707 44.7084 4.93673C45.1646 5.67174 45.3927 6.53347 45.3927 7.57261C45.3927 8.45968 45.2153 9.22003 44.8858 9.879C44.531 10.5126 44.0748 11.0449 43.4919 11.4504C42.9089 11.8559 42.1993 12.16 41.3882 12.3628C40.5772 12.5656 39.7155 12.667 38.803 12.667H35.9391V18.3189H32.4668ZM35.9391 9.90435H39.3099C40.1463 9.90435 40.8053 9.72693 41.2615 9.34676C41.7177 8.96658 41.9458 8.43434 41.9458 7.72468C41.9458 7.01502 41.7177 6.48278 41.2868 6.15329C40.8306 5.82381 40.1717 5.67174 39.3099 5.67174H35.9644V9.90435H35.9391ZM42.3767 18.3189L38.803 12.2361L42.0725 11.5771L46.2291 18.2935H42.3767V18.3189Z" fill="#0051C6"/>
<path id="Vector_4" d="M56.1896 18.547C54.3394 18.547 52.7427 18.2175 51.4248 17.5585C50.1068 16.8996 49.093 15.9618 48.3834 14.7706C47.6737 13.554 47.3442 12.1347 47.3442 10.4873C47.3442 9.16934 47.5723 8.02882 48.0032 7.01502C48.4594 6.02657 49.0677 5.19018 49.8787 4.50587C50.6644 3.82156 51.6022 3.31466 52.6667 2.98517C53.7312 2.65569 54.8463 2.47827 56.0629 2.47827C56.7726 2.47827 57.5076 2.55431 58.2172 2.68103C58.9269 2.8331 59.6366 3.03586 60.3462 3.28931L61.0559 3.56811L60.4729 6.17864L59.6112 6.02657C58.9776 5.89984 58.3946 5.79846 57.8117 5.72243C57.2288 5.64639 56.6965 5.62105 56.1643 5.62105C55.1251 5.62105 54.2127 5.79846 53.427 6.12795C52.6413 6.48278 52.0331 6.98968 51.5768 7.72468C51.1206 8.43434 50.9179 9.3721 50.9179 10.538C50.9179 11.6532 51.1206 12.5909 51.5515 13.3259C51.9824 14.0609 52.5906 14.6185 53.4017 14.9733C54.2127 15.3282 55.1758 15.5309 56.3164 15.5309C56.7219 15.5309 57.1527 15.5056 57.609 15.4549C58.0652 15.4042 58.5214 15.3282 58.9776 15.2268V12.1854H54.9477V9.42279H62.1964V17.0009C61.6895 17.2797 61.1066 17.5332 60.4476 17.7613C59.7886 17.9894 59.1043 18.1668 58.3946 18.3189C57.6343 18.471 56.8993 18.547 56.1896 18.547Z" fill="#0051C6"/>
<path id="Vector_5" d="M64.9844 18.3189V2.68103H76.9726V5.69708H68.4566V8.89055H76.0855V11.7799H68.4566V15.2775H77.15V18.3189H64.9844Z" fill="#0051C6"/>
<path id="Vector_6" d="M79.6338 18.3189V2.68103H86.9585C88.099 2.68103 89.0875 2.88379 89.9238 3.26396C90.7602 3.66948 91.3939 4.22707 91.8754 4.93673C92.3316 5.67174 92.5597 6.53347 92.5597 7.57261C92.5597 8.45968 92.3823 9.22003 92.0528 9.879C91.698 10.5126 91.2418 11.0449 90.6589 11.4504C90.0759 11.8559 89.3663 12.16 88.5552 12.3628C87.7442 12.5656 86.8825 12.667 85.97 12.667H83.106V18.3189H79.6338ZM83.106 9.90435H86.4769C87.3133 9.90435 87.9723 9.72693 88.4285 9.34676C88.8847 8.96658 89.1128 8.43434 89.1128 7.72468C89.1128 7.01502 88.8847 6.48278 88.4538 6.15329C87.9976 5.82381 87.3387 5.67174 86.4769 5.67174H83.1314V9.90435H83.106ZM89.5183 18.3189L85.9447 12.2361L89.2142 11.5771L93.3708 18.2935H89.5183V18.3189Z" fill="#0051C6"/>
</g>
<g id="Group_3">
<g id="Group_4">
<g id="Group_5">
<g id="Group_6">
<path id="Vector_7" d="M96.3867 18.3189V2.68103H103.762C104.928 2.68103 105.916 2.90914 106.753 3.34C107.589 3.77086 108.197 4.37914 108.628 5.19018C109.059 6.00122 109.287 6.93899 109.287 8.05416C109.287 9.16934 109.059 10.1325 108.603 10.9688C108.147 11.8052 107.513 12.4388 106.677 12.8697C105.84 13.3259 104.852 13.5287 103.737 13.5287H99.859L99.8843 18.2935H96.3867V18.3189ZM99.859 10.538H103.103C103.94 10.538 104.598 10.3352 105.055 9.95504C105.511 9.54952 105.739 8.94124 105.739 8.07951C105.739 7.19244 105.511 6.58416 105.055 6.20398C104.598 5.84915 103.94 5.64639 103.103 5.64639H99.859V10.538ZM111.746 18.3189V2.68103H119.07C120.211 2.68103 121.199 2.88379 122.036 3.26396C122.872 3.66948 123.506 4.22707 123.987 4.93673C124.444 5.67174 124.672 6.53347 124.672 7.57261C124.672 8.45968 124.494 9.22003 124.165 9.879C123.81 10.5126 123.354 11.0449 122.771 11.4504C122.188 11.8559 121.478 12.16 120.667 12.3628C119.856 12.5656 118.994 12.667 118.082 12.667H115.218V18.3189H111.746ZM115.218 9.90435H118.589C119.425 9.90435 120.084 9.72693 120.54 9.34676C120.997 8.96658 121.225 8.43434 121.225 7.72468C121.225 7.01502 120.997 6.48278 120.566 6.15329C120.11 5.82381 119.451 5.67174 118.589 5.67174H115.243V9.90435H115.218ZM121.63 18.3189L118.057 12.2361L121.326 11.5771L125.483 18.2935H121.63V18.3189ZM127.561 18.3189V2.68103H131.033V18.2935H127.561V18.3189ZM134.43 18.3189V2.68103H137.471L145.328 12.0333H145.379V2.68103H148.825V18.2935H146.038L137.927 8.56106H137.876V18.2935H134.43V18.3189ZM156.328 18.3189V5.72243H151.157V2.68103H164.945V5.72243H159.8V18.3189H156.328Z" fill="#E96D1F"/>
</g>
</g>
<g id="Group_7">
<path id="Vector_8" d="M180 8.68775L170.521 10.031L176.071 0.425293H170.749L163.88 12.3121L173.334 10.9941L167.809 20.5745H173.131L180 8.68775Z" fill="#E96D1F"/>
</g>
</g>
</g>
</g>
</g>
<defs>
<clipPath id="clip0_3739_17606">
<rect width="180" height="20.1493" fill="white" transform="translate(0 0.425293)"/>
</clipPath>
</defs>
</svg>
